TITLE ""
FILE "Disc3Track64.mp3" MP3
  TRACK 01 AUDIO
    TITLE "Disc3Track64_01"
    INDEX 01 00:00:00
  TRACK 02 AUDIO
    TITLE "Disc3Track64_02"
    INDEX 01 00:00:73
  TRACK 03 AUDIO
    TITLE "Disc3Track64_03"
    INDEX 01 00:02:29
  TRACK 04 AUDIO
    TITLE "Disc3Track64_04"
    INDEX 01 00:03:38
  TRACK 05 AUDIO
    TITLE "Disc3Track64_05"
    INDEX 01 00:08:31
  TRACK 06 AUDIO
    TITLE "Disc3Track64_06"
    INDEX 01 00:08:63
  TRACK 07 AUDIO
    TITLE "Disc3Track64_07"
    INDEX 01 00:10:07
  TRACK 08 AUDIO
    TITLE "Disc3Track64_08"
    INDEX 01 00:11:12
  TRACK 09 AUDIO
    TITLE "Disc3Track64_09"
    INDEX 01 00:12:31
  TRACK 10 AUDIO
    TITLE "Disc3Track64_10"
    INDEX 01 00:12:70
  TRACK 11 AUDIO
    TITLE "Disc3Track64_11"
    INDEX 01 00:14:16
  TRACK 12 AUDIO
    TITLE "Disc3Track64_12"
    INDEX 01 00:15:14
  TRACK 13 AUDIO
    TITLE "Disc3Track64_13"
    INDEX 01 00:16:33
  TRACK 14 AUDIO
    TITLE "Disc3Track64_14"
    INDEX 01 00:18:38
  TRACK 15 AUDIO
    TITLE "Disc3Track64_15"
    INDEX 01 00:18:71
  TRACK 16 AUDIO
    TITLE "Disc3Track64_16"
    INDEX 01 00:20:09
  TRACK 17 AUDIO
    TITLE "Disc3Track64_17"
    INDEX 01 00:21:24
  TRACK 18 AUDIO
    TITLE "Disc3Track64_18"
    INDEX 01 00:22:37
  TRACK 19 AUDIO
    TITLE "Disc3Track64_19"
    INDEX 01 00:24:56
  TRACK 20 AUDIO
    TITLE "Disc3Track64_20"
    INDEX 01 00:25:18
  TRACK 21 AUDIO
    TITLE "Disc3Track64_21"
    INDEX 01 00:26:41
  TRACK 22 AUDIO
    TITLE "Disc3Track64_22"
    INDEX 01 00:27:64
  TRACK 23 AUDIO
    TITLE "Disc3Track64_23"
    INDEX 01 00:29:10
  TRACK 24 AUDIO
    TITLE "Disc3Track64_24"
    INDEX 01 00:32:59
  TRACK 25 AUDIO
    TITLE "Disc3Track64_25"
    INDEX 01 00:33:16
  TRACK 26 AUDIO
    TITLE "Disc3Track64_26"
    INDEX 01 00:34:37
  TRACK 27 AUDIO
    TITLE "Disc3Track64_27"
    INDEX 01 00:36:00
  TRACK 28 AUDIO
    TITLE "Disc3Track64_28"
    INDEX 01 00:37:19
  TRACK 29 AUDIO
    TITLE "Disc3Track64_29"
    INDEX 01 00:40:25
  TRACK 30 AUDIO
    TITLE "Disc3Track64_30"
    INDEX 01 00:40:57
  TRACK 31 AUDIO
    TITLE "Disc3Track64_31"
    INDEX 01 00:42:05
  TRACK 32 AUDIO
    TITLE "Disc3Track64_32"
    INDEX 01 00:43:04
  TRACK 33 AUDIO
    TITLE "Disc3Track64_33"
    INDEX 01 00:44:25
  TRACK 34 AUDIO
    TITLE "Disc3Track64_34"
    INDEX 01 00:46:06
  TRACK 35 AUDIO
    TITLE "Disc3Track64_35"
    INDEX 01 00:46:32
  TRACK 36 AUDIO
    TITLE "Disc3Track64_36"
    INDEX 01 00:47:53
  TRACK 37 AUDIO
    TITLE "Disc3Track64_37"
    INDEX 01 00:48:60
  TRACK 38 AUDIO
    TITLE "Disc3Track64_38"
    INDEX 01 00:50:08
  TRACK 39 AUDIO
    TITLE "Disc3Track64_39"
    INDEX 01 00:55:09
  TRACK 40 AUDIO
    TITLE "Disc3Track64_40"
    INDEX 01 00:55:39
  TRACK 41 AUDIO
    TITLE "Disc3Track64_41"
    INDEX 01 00:56:73
  TRACK 42 AUDIO
    TITLE "Disc3Track64_42"
    INDEX 01 00:57:69
  TRACK 43 AUDIO
    TITLE "Disc3Track64_43"
    INDEX 01 00:59:31
